<svg id="visual" viewBox="0 0 900 600" width="900" height="600" xmlns="http://www.w3.org/2000/svg" xmlns:xlink="http://www.w3.org/1999/xlink" version="1.1"><rect x="0" y="0" width="900" height="600" fill="#fff"></rect><path d="M206 0L201 0L201 86L273 86L273 171L200 171L200 257L186 257L186 343L216 343L216 429L163 429L163 514L268 514L268 600L0 600L0 514L0 514L0 429L0 429L0 343L0 343L0 257L0 257L0 171L0 171L0 86L0 86L0 0L0 0Z" fill="#7be6ab"></path><path d="M107 0L93 0L93 86L157 86L157 171L67 171L67 257L180 257L180 343L65 343L65 429L104 429L104 514L180 514L180 600L0 600L0 514L0 514L0 429L0 429L0 343L0 343L0 257L0 257L0 171L0 171L0 86L0 86L0 0L0 0Z" fill="#1f9e5f"></path></svg>