<svg id="visual" viewBox="0 0 900 600" width="900" height="600" xmlns="http://www.w3.org/2000/svg" xmlns:xlink="http://www.w3.org/1999/xlink" version="1.1"><path d="M0 43L82 109L164 97L245 73L327 79L409 49L491 43L573 73L655 121L736 67L818 55L900 37L900 0L818 0L736 0L655 0L573 0L491 0L409 0L327 0L245 0L164 0L82 0L0 0Z" fill="#00377e"></path><path d="M0 193L82 205L164 229L245 163L327 151L409 187L491 127L573 175L655 241L736 157L818 145L900 109L900 35L818 53L736 65L655 119L573 71L491 41L409 47L327 77L245 71L164 95L82 107L0 41Z" fill="#002e69"></path><path d="M0 445L82 421L164 385L245 289L327 349L409 307L491 307L573 445L655 433L736 331L818 391L900 325L900 107L818 143L736 155L655 239L573 173L491 125L409 185L327 149L245 161L164 227L82 203L0 191Z" fill="#002554"></path><path d="M0 493L82 523L164 487L245 325L327 451L409 391L491 379L573 499L655 493L736 415L818 445L900 427L900 323L818 389L736 329L655 431L573 443L491 305L409 305L327 347L245 287L164 383L82 419L0 443Z" fill="#001c40"></path><path d="M0 601L82 601L164 601L245 601L327 601L409 601L491 601L573 601L655 601L736 601L818 601L900 601L900 425L818 443L736 413L655 491L573 497L491 377L409 389L327 449L245 323L164 485L82 521L0 491Z" fill="#00132d"></path></svg>